<svg width="406" height="407" viewBox="0 0 406 407" fill="none" xmlns="http://www.w3.org/2000/svg">
<path d="M73.3771 403H13.3771" stroke="#219653" stroke-width="5" stroke-linecap="round"/>
<path d="M5.37712 334C5.37712 332.619 4.25783 331.5 2.87712 331.5C1.49641 331.5 0.377121 332.619 0.377121 334L5.37712 334ZM0.377121 334L0.377121 394L5.37712 394L5.37712 334L0.377121 334Z" fill="#219653"/>
<path d="M2.87714 393.5C3.37712 402.5 5.9704 403.126 14.3771 403" stroke="#219653" stroke-width="5"/>
<path d="M3.53479 73.3803L3.58886 13.3803" stroke="#219653" stroke-width="5" stroke-linecap="round"/>
<path d="M72.596 5.4425C73.9768 5.44375 75.0971 4.32547 75.0983 2.94476C75.0995 1.56405 73.9813 0.44375 72.6006 0.442506L72.596 5.4425ZM72.6006 0.442506L12.6006 0.388433L12.5961 5.38843L72.596 5.4425L72.6006 0.442506Z" fill="#219653"/>
<path d="M13.0983 2.88887C4.09788 3.38074 3.4696 5.97346 3.58795 14.3803" stroke="#219653" stroke-width="5"/>
<path d="M332.523 3.53467L392.522 3.98988" stroke="#219653" stroke-width="5" stroke-linecap="round"/>
<path d="M399.998 73.0486C399.988 74.4293 401.098 75.557 402.479 75.5675C403.86 75.578 404.987 74.4672 404.998 73.0865L399.998 73.0486ZM404.998 73.0865L405.453 13.0883L400.453 13.0503L399.998 73.0486L404.998 73.0865Z" fill="#219653"/>
<path d="M402.949 13.5692C402.518 4.56572 399.929 3.92013 391.522 3.98227" stroke="#219653" stroke-width="5"/>
<path d="M401.62 333.586L401.111 393.583" stroke="#219653" stroke-width="5" stroke-linecap="round"/>
<path d="M332.046 400.998C330.665 400.986 329.536 402.096 329.525 403.476C329.513 404.857 330.623 405.986 332.003 405.997L332.046 400.998ZM332.003 405.997L392.001 406.507L392.043 401.507L332.046 400.998L332.003 405.997Z" fill="#219653"/>
<path d="M391.522 404.002C400.526 403.579 401.174 400.991 401.12 392.583" stroke="#219653" stroke-width="5"/>
</svg>
